<svg width="32" height="34" viewBox="0 0 32 34" fill="none" xmlns="http://www.w3.org/2000/svg">
<path d="M29.0572 0H2.9428C1.31754 0 0 1.39988 0 3.12673V30.8733C0 32.6001 1.31754 34 2.9428 34H29.0572C30.6825 34 32 32.6001 32 30.8733V3.12673C32 1.39988 30.6825 0 29.0572 0Z" fill="black"/>
<path fill-rule="evenodd" clip-rule="evenodd" d="M17.7162 5.48431L17.7077 10.5811L17.6993 15.6779L17.3046 14.4947C17.3045 14.4943 17.304 14.4928 17.3038 14.4924L16.7939 25.8391C17.2953 27.3436 17.5639 28.1468 17.5669 28.15C17.5709 28.1542 17.8566 28.1725 18.2019 28.1907C19.2481 28.2459 20.5446 28.3641 21.528 28.4939C21.7558 28.524 21.9517 28.5394 21.9635 28.5281C21.9753 28.5169 21.9818 23.3274 21.9778 16.996L21.9706 5.48431H19.8434H17.7162V5.48431Z" fill="#BB000A" stroke="black" stroke-width="0.0820533"/>
<path fill-rule="evenodd" clip-rule="evenodd" d="M10.021 5.46869V16.992C10.021 23.3299 10.0269 28.5216 10.034 28.5292C10.0412 28.5368 10.4106 28.4998 10.8549 28.4469C11.2993 28.394 11.9134 28.3283 12.2196 28.3008C12.6893 28.2587 14.0916 28.1629 14.254 28.1618C14.3012 28.1615 14.3042 27.9026 14.3111 23.281L14.3183 18.4005L14.6576 19.4205C14.71 19.5781 14.7265 19.6274 14.7776 19.781L15.2874 8.43697C15.1794 8.11245 15.236 8.28281 15.1122 7.91089C14.6956 6.65945 14.3421 5.598 14.3267 5.55212L14.2985 5.46869H12.1598H10.021V5.46869Z" fill="#BB000A" stroke="black" stroke-width="0.0820533"/>
<path fill-rule="evenodd" clip-rule="evenodd" d="M10.021 5.46869V11.9371L14.3097 24.0243C14.3101 23.7473 14.3106 23.5976 14.3111 23.281L14.3183 18.4005L14.6576 19.4205C16.5463 25.0987 17.561 28.1432 17.5669 28.1495C17.5709 28.1537 17.8566 28.1721 18.2019 28.1903C19.2481 28.2454 20.5446 28.3636 21.528 28.4935C21.7558 28.5235 21.9517 28.5389 21.9635 28.5277C21.9716 28.52 21.9769 25.9755 21.9783 22.3859L17.7098 9.34673L17.7077 10.5806L17.6993 15.6774L17.3046 14.4942C16.919 13.3381 16.6615 12.565 15.1122 7.9109C14.6956 6.65945 14.3421 5.598 14.3267 5.55212L14.2985 5.46869H12.1598H10.021H10.021Z" fill="url(#paint0_radial)"/>
<path fill-rule="evenodd" clip-rule="evenodd" d="M10.0214 5.46869L14.3186 18.4064V18.4005L14.6579 19.4205C16.5465 25.0987 17.5612 28.1432 17.5672 28.1495C17.5711 28.1537 17.8569 28.1721 18.2022 28.1903C19.2484 28.2454 20.5448 28.3636 21.5283 28.4935C21.7548 28.5234 21.9498 28.5387 21.9634 28.5278L17.6995 15.675V15.6774L17.3048 14.4942C16.9192 13.3381 16.6617 12.565 15.1125 7.9109C14.6959 6.65945 14.3424 5.598 14.3269 5.55212L14.2987 5.46869H12.16H10.0214V5.46869Z" fill="#FF000D"/>
<path fill-rule="evenodd" clip-rule="evenodd" d="M17.7162 5.48431L17.7077 10.5811L17.6993 15.6779L17.3046 14.4947C17.3045 14.4943 17.304 14.4928 17.3038 14.4924L16.7939 25.8391C17.2953 27.3436 17.5639 28.1468 17.5669 28.15C17.5709 28.1542 17.8566 28.1725 18.2019 28.1907C19.2481 28.2459 20.5446 28.3641 21.528 28.4939C21.7558 28.524 21.9517 28.5394 21.9635 28.5281C21.9753 28.5169 21.9818 23.3274 21.9778 16.996L21.9706 5.48431H19.8434H17.7162V5.48431Z" fill="#BB000A" stroke="black" stroke-width="0.0820533"/>
<path fill-rule="evenodd" clip-rule="evenodd" d="M10.021 5.46869V16.992C10.021 23.3299 10.0269 28.5216 10.034 28.5292C10.0412 28.5368 10.4106 28.4998 10.8549 28.4469C11.2993 28.394 11.9134 28.3283 12.2196 28.3008C12.6893 28.2587 14.0916 28.1629 14.254 28.1618C14.3012 28.1615 14.3042 27.9026 14.3111 23.281L14.3183 18.4005L14.6576 19.4205C14.71 19.5781 14.7265 19.6274 14.7776 19.781L15.2874 8.43697C15.1794 8.11245 15.236 8.28281 15.1122 7.91089C14.6956 6.65945 14.3421 5.598 14.3267 5.55212L14.2985 5.46869H12.1598H10.021V5.46869Z" fill="#BB000A" stroke="black" stroke-width="0.0820533"/>
<path fill-rule="evenodd" clip-rule="evenodd" d="M10.021 5.46869V11.9371L14.3097 24.0243C14.3101 23.7473 14.3106 23.5976 14.3111 23.281L14.3183 18.4005L14.6576 19.4205C16.5463 25.0987 17.561 28.1432 17.5669 28.1495C17.5709 28.1537 17.8566 28.1721 18.2019 28.1903C19.2481 28.2454 20.5446 28.3636 21.528 28.4935C21.7558 28.5235 21.9517 28.5389 21.9635 28.5277C21.9716 28.52 21.9769 25.9755 21.9783 22.3859L17.7098 9.34673L17.7077 10.5806L17.6993 15.6774L17.3046 14.4942C16.919 13.3381 16.6615 12.565 15.1122 7.9109C14.6956 6.65945 14.3421 5.598 14.3267 5.55212L14.2985 5.46869H12.1598H10.021H10.021Z" fill="url(#paint1_radial)"/>
<path fill-rule="evenodd" clip-rule="evenodd" d="M10.0214 5.46869L14.3186 18.4064V18.4005L14.6579 19.4205C16.5465 25.0987 17.5612 28.1432 17.5672 28.1495C17.5711 28.1537 17.8569 28.1721 18.2022 28.1903C19.2484 28.2454 20.5448 28.3636 21.5283 28.4935C21.7548 28.5234 21.9498 28.5387 21.9634 28.5278L17.6995 15.675V15.6774L17.3048 14.4942C16.9192 13.3381 16.6617 12.565 15.1125 7.9109C14.6959 6.65945 14.3424 5.598 14.3269 5.55212L14.2987 5.46869H12.16H10.0214V5.46869Z" fill="#FF000D"/>
<defs>
<radialGradient id="paint0_radial" cx="0" cy="0" r="1" gradientUnits="userSpaceOnUse" gradientTransform="translate(15.8012 16.8659) rotate(-20.1979) scale(2.72882 104.756)">
<stop/>
<stop offset="1" stop-opacity="0"/>
</radialGradient>
<radialGradient id="paint1_radial" cx="0" cy="0" r="1" gradientUnits="userSpaceOnUse" gradientTransform="translate(15.8012 16.8659) rotate(-20.1979) scale(2.72882 104.756)">
<stop/>
<stop offset="1" stop-opacity="0"/>
</radialGradient>
</defs>
</svg>
